Coordinates
version=1
nRows=49
nColumns=12
inDegrees=yes

Units are S.I. units (second, meters, Newtons, ...)
Angles are in degrees

endheader
time	SC_y	SC_z	SC_x	AC_y	AC_z	AC_x	GH_y	GH_z	GH_yy	EL_x	PS_y
       0.0              -43.73          14.77          72.75          66.89          -6.41          3.262         -141.5          3.117          111.3          115.2          18.86
   0.04227              -43.73          14.77          72.75          66.89          -6.41          3.262         -141.4          3.126          111.3          115.2          18.88
   0.08454              -43.73          14.77          72.75          66.88          -6.41          3.263         -141.4          3.135          111.2          115.2          18.89
    0.1268              -43.74          14.78          72.75          66.88          -6.41          3.264         -141.3          3.144          111.2          115.1          18.91
    0.1691              -43.74          14.78          72.74          66.87         -6.411          3.264         -141.3          3.155          111.2          115.1          18.93
    0.2114              -43.74          14.78          72.74          66.86         -6.411          3.265         -141.2          3.166          111.1          115.1          18.95
    0.2536              -43.75          14.79          72.74          66.86         -6.411          3.266         -141.2          3.177          111.1          115.1          18.97
    0.2959              -43.75          14.79          72.74          66.85         -6.411          3.266         -141.1           3.19          111.1          115.1          18.99
    0.3382              -43.75           14.8          72.74          66.84         -6.412          3.267         -141.0          3.203          111.0          115.1          19.01
    0.3804              -43.76           14.8          72.74          66.83         -6.412          3.268         -141.0          3.217          111.0          115.1          19.04
    0.4227              -43.76          14.81          72.74          66.82         -6.412          3.269         -140.9          3.233          110.9          115.1          19.06
     0.465              -43.76          14.81          72.74          66.81         -6.413           3.27         -140.8          3.249          110.8          115.1          19.09
    0.5073              -43.77          14.82          72.74           66.8         -6.413          3.271         -140.7          3.267          110.8          115.1          19.12
    0.5495              -43.77          14.82          72.74          66.79         -6.414          3.272         -140.6          3.286          110.7          115.1          19.16
    0.5918              -43.78          14.83          72.74          66.78         -6.414          3.274         -140.5          3.307          110.6          115.0          19.19
    0.6341              -43.78          14.84          72.73          66.76         -6.415          3.275         -140.4           3.33          110.5          115.0          19.23
    0.6763              -43.79          14.85          72.73          66.75         -6.415          3.277         -140.3          3.355          110.5          115.0          19.27
    0.7186               -43.8          14.86          72.73          66.73         -6.416          3.278         -140.1          3.381          110.4          115.0          19.32
    0.7609              -43.81          14.87          72.73          66.72         -6.416           3.28         -140.0          3.411          110.3          115.0          19.37
    0.8032              -43.81          14.88          72.73           66.7         -6.417          3.282         -139.8          3.443          110.1          115.0          19.43
    0.8454              -43.82          14.89          72.73          66.67         -6.418          3.284         -139.7          3.478          110.0          114.9          19.49
    0.8877              -43.83           14.9          72.72          66.65         -6.419          3.287         -139.5          3.517          109.9          114.9          19.56
      0.93              -43.84          14.92          72.72          66.63          -6.42          3.289         -139.2          3.559          109.7          114.9          19.63
    0.9722              -43.86          14.93          72.72           66.6         -6.421          3.292         -139.0          3.607          109.6          114.8          19.71
     1.015              -43.87          14.95          72.71          66.56         -6.422          3.296         -138.7          3.659          109.4          114.8           19.8
     1.057              -43.88          14.97          72.71          66.53         -6.423          3.299         -138.4          3.718          109.2          114.8          19.91
     1.099               -43.9          14.99          72.71          66.49         -6.425          3.303         -138.1          3.784          108.9          114.7          20.02
     1.141              -43.92          15.02           72.7          66.44         -6.426          3.308         -137.7          3.858          108.7          114.7          20.15
     1.184              -43.94          15.05           72.7          66.39         -6.428          3.313         -137.3          3.942          108.4          114.6           20.3
     1.226              -43.97          15.08          72.69          66.33         -6.431          3.319         -136.8          4.037          108.0          114.6          20.46
     1.268              -43.99          15.11          72.68          66.27         -6.433          3.326         -136.3          4.145          107.6          114.5          20.65
      1.31              -44.02          15.16          72.68          66.19         -6.436          3.333         -135.7           4.27          107.2          114.4          20.87
     1.353              -44.06           15.2          72.67           66.1         -6.439          3.342         -134.9          4.414          106.7          114.3          21.11
     1.395               -44.1          15.26          72.66           66.0         -6.443          3.353         -134.1          4.581          106.1          114.2          21.41
     1.437              -44.15          15.33          72.65          65.88         -6.447          3.365         -133.1          4.776          105.4          114.1          21.74
      1.48              -44.21           15.4          72.63          65.74         -6.452          3.379         -132.0          5.006          104.5          113.9          22.15
     1.522              -44.28           15.5          72.62          65.58         -6.459          3.396         -130.6           5.28          103.6          113.7          22.62
     1.564              -44.37          15.61           72.6          65.38         -6.466          3.417         -128.9          5.608          102.4          113.5          23.19
     1.606              -44.47          15.74          72.57          65.14         -6.475          3.441         -126.9          6.005          101.0          113.2          23.88
     1.649              -44.59           15.9          72.54          64.84         -6.486          3.471         -124.5           6.49          99.23          112.9          24.72
     1.691              -44.74           16.1           72.5          64.48         -6.499          3.508         -121.5          7.088          97.08          112.5          25.76
     1.733              -44.94          16.35          72.46          64.02         -6.516          3.555         -117.7          7.835          94.41          112.0          27.06
     1.775              -45.18          16.67           72.4          63.45         -6.537          3.613         -113.0          8.775          91.04          111.4           28.7
     1.818              -45.48          17.07          72.33          62.72         -6.564          3.687         -107.0           9.97          86.76          110.6          30.77
      1.86              -45.87          17.59          72.24          61.79         -6.599          3.782         -99.28           11.5          81.28          109.6          33.43
     1.902              -46.37          18.25          72.12          60.59         -6.643          3.904          -89.4          13.46          74.24          108.3          36.84
     1.944              -47.01          19.09          71.96          59.07           -6.7           4.06         -76.77          15.97          65.26          106.6           41.2
     1.987              -47.82          20.15          71.77          57.15         -6.771          4.255          -60.9          19.12          53.96          104.5          46.68
     2.029               -48.8          21.44          71.54          54.81         -6.857          4.494         -41.56          22.97          40.19          102.0          53.36
